<svg width="24" height="24" viewBox="0 0 24 24" fill="none" xmlns="http://www.w3.org/2000/svg">
<path d="M11.3828 10.8594H13.0254V11.9544H11.3828V10.8594Z" fill="white"/>
<path d="M8.36719 15.5156H9.5535V16.7019H8.36719V15.5156Z" fill="white"/>
<path d="M14.8477 15.5156H16.034V16.7019H14.8477V15.5156Z" fill="white"/>
<path d="M14.8477 18.5234H16.034V19.7097H14.8477V18.5234Z" fill="white"/>
<path d="M11.5625 18.5234H12.7488V19.7097H11.5625V18.5234Z" fill="white"/>
<path d="M8.36719 18.5234H9.5535V19.7097H8.36719V18.5234Z" fill="white"/>
<path d="M8.36719 18.8906H16.0326V19.2556H8.36719V18.8906Z" fill="white"/>
<path fill-rule="evenodd" clip-rule="evenodd" d="M11.0152 7.93805V6.5236L11.0038 6.38672H8.73384C7.77627 6.38672 7 7.16299 7 8.12056V22.265C7 23.2226 7.77627 23.9989 8.73384 23.9989H15.6692C16.6268 23.9989 17.403 23.2226 17.403 22.265V8.12056C17.403 7.16299 16.6268 6.38672 15.6692 6.38672H13.3935L13.3878 6.5236V7.93805H14.3004C14.7384 7.93805 14.8479 7.60345 14.8479 7.43615V7.0255H16.0798C16.6639 7.0255 16.8403 7.63387 16.8555 7.93805V21.8088H7.54753V8.39432C7.54753 7.29927 8.06464 7.0255 8.32319 7.0255H9.55513V7.43615C9.55513 7.76467 9.79848 7.90763 9.92015 7.93805H11.0152ZM11.2433 22.265C10.9158 22.265 10.6502 22.5306 10.6502 22.8582C10.6502 23.1858 10.9158 23.4514 11.2433 23.4514H13.1597C13.4873 23.4514 13.7529 23.1858 13.7529 22.8582C13.7529 22.5306 13.4873 22.265 13.1597 22.265H11.2433Z" fill="white"/>
<path d="M11.554 0.638684C11.5603 0.284135 11.8495 0 12.2041 0L-nan -nanL-nan -nanL12.2041 0C12.5587 0 12.8479 0.284135 12.8542 0.638683L13.0254 10.3118H11.3828L11.554 0.638684Z" fill="white"/>
<path d="M15.4499 16.5767C15.2474 17.3269 14.8167 17.9863 14.2241 18.4533C13.6314 18.9203 12.9096 19.1692 12.1697 19.1616C11.4297 19.1541 10.7126 18.8905 10.1286 18.4115C9.54467 17.9325 9.12617 17.2645 8.9375 16.5103L9.1994 16.4375C9.37294 17.1312 9.75787 17.7456 10.295 18.1862C10.8321 18.6268 11.4917 18.8692 12.1723 18.8762C12.8529 18.8831 13.5168 18.6542 14.0619 18.2246C14.607 17.7951 15.0031 17.1886 15.1894 16.4986L15.4499 16.5767Z" fill="white"/>
<path fill-rule="evenodd" clip-rule="evenodd" d="M13.0251 12.5H11.3825L10.5156 14.5989L12.067 17.8384H12.1126V14.9524C11.9551 14.9119 11.8388 14.7689 11.8388 14.5989C11.8388 14.3973 12.0022 14.2338 12.2038 14.2338C12.4054 14.2338 12.5689 14.3973 12.5689 14.5989C12.5689 14.7689 12.4525 14.9119 12.2951 14.9524V17.8384H12.3863L13.9377 14.5989L13.0251 12.5Z" fill="white"/>
</svg>
