<svg width="24" height="24" viewBox="0 0 24 24" fill="none" xmlns="http://www.w3.org/2000/svg">
<g clip-path="url(#clip0_3166_899)">
<g clip-path="url(#clip1_3166_899)">
<path d="M21.6774 0H18.5806V3.87097H0V24H21.6774C22.9583 24 24 22.9583 24 21.6774V2.32258C24 1.04168 22.9583 0 21.6774 0ZM21.6774 23.2258H0.774194V4.64516H18.5806V20.129H21.6774C22.5314 20.129 23.2258 20.8235 23.2258 21.6774C23.2258 22.5314 22.5314 23.2258 21.6774 23.2258ZM23.2258 19.9475C22.8147 19.5794 22.2716 19.3548 21.6774 19.3548H19.3548V0.774194H21.6774C22.5314 0.774194 23.2258 1.46865 23.2258 2.32258V19.9475Z" fill="white"/>
<path d="M12.7734 11.0912V20.5174C12.7734 21.5846 13.6417 22.4529 14.7089 22.4529C15.7761 22.4529 16.6444 21.5846 16.6444 20.5174V11.0912L14.7089 8.67188L12.7734 11.0912ZM13.5476 12.0013H14.3218V17.8077H13.5476V12.0013ZM15.8702 20.5174C15.8702 21.1577 15.3492 21.6787 14.7089 21.6787C14.0687 21.6787 13.5476 21.1577 13.5476 20.5174V20.1303H15.8702V20.5174ZM15.8702 19.3561H13.5476V18.5819H15.8702V19.3561ZM15.8702 17.8077H15.096V12.0013H15.8702V17.8077ZM13.656 11.2271L14.7089 9.91136L15.7618 11.2271H13.656Z" fill="white"/>
<path d="M14.3214 8.12891H13.1602V8.9031H14.3214V8.12891Z" fill="white"/>
<path d="M15.0984 6.96875H14.3242V8.13004H15.0984V6.96875Z" fill="white"/>
<path d="M16.2589 8.12891H15.0977V8.9031H16.2589V8.12891Z" fill="white"/>
<path d="M1.54688 21.6785H2.32107C2.32107 10.1778 12.0159 8.94843 12.4286 8.90197L12.3426 8.13281C12.2346 8.14443 1.54688 9.47333 1.54688 21.6785Z" fill="white"/>
<path d="M9.29095 13.1602C8.22373 13.1602 7.35547 14.0284 7.35547 15.0956C7.35547 16.1629 8.22373 17.0311 9.29095 17.0311C10.3582 17.0311 11.2264 16.1629 11.2264 15.0956C11.2264 14.0284 10.3582 13.1602 9.29095 13.1602ZM9.29095 16.2569C8.65069 16.2569 8.12966 15.7359 8.12966 15.0956C8.12966 14.4554 8.65069 13.9343 9.29095 13.9343C9.93121 13.9343 10.4522 14.4554 10.4522 15.0956C10.4522 15.7359 9.93121 16.2569 9.29095 16.2569Z" fill="white"/>
<path d="M3.48236 9.28894C4.54958 9.28894 5.41784 8.42068 5.41784 7.35345C5.41784 6.28623 4.54958 5.41797 3.48236 5.41797C2.41513 5.41797 1.54688 6.28623 1.54688 7.35345C1.54688 8.42068 2.41513 9.28894 3.48236 9.28894ZM3.48236 6.19216C4.12262 6.19216 4.64365 6.71319 4.64365 7.35345C4.64365 7.99371 4.12262 8.51474 3.48236 8.51474C2.8421 8.51474 2.32107 7.99371 2.32107 7.35345C2.32107 6.71319 2.8421 6.19216 3.48236 6.19216Z" fill="white"/>
</g>
</g>
<defs>
<clipPath id="clip0_3166_899">
<rect width="24" height="24" fill="white"/>
</clipPath>
<clipPath id="clip1_3166_899">
<rect width="24" height="24" fill="white"/>
</clipPath>
</defs>
</svg>
