<svg width="24" height="24" viewBox="0 0 24 24" fill="none" xmlns="http://www.w3.org/2000/svg">
<g clip-path="url(#clip0_3166_900)">
<g clip-path="url(#clip1_3166_900)">
<path d="M24 0H0V17.8065H4.18335C3.53923 18.9844 3.15523 20.3237 3.1049 21.7463C2.65123 21.9043 2.32258 22.3316 2.32258 22.8387C2.32258 23.479 2.84361 24 3.48387 24C4.12413 24 4.64516 23.479 4.64516 22.8387C4.64516 22.3405 4.32813 21.9182 3.88684 21.7537C3.94181 20.3094 4.37303 18.9635 5.08877 17.8065H7.76052C7.83755 18.6643 8.172 19.4659 8.72245 20.129H8.12903V20.9032H8.90323V21.6774H8.12903V22.4516H8.90323V24H15.0968V22.4516H15.871V21.6774H15.0968V20.9032H15.871V20.129H15.2779C15.8284 19.4659 16.1628 18.6643 16.2399 17.8065H18.9116C19.627 18.9635 20.0586 20.3094 20.1135 21.7537C19.6719 21.9182 19.3548 22.3405 19.3548 22.8387C19.3548 23.479 19.8759 24 20.5161 24C21.1564 24 21.6774 23.479 21.6774 22.8387C21.6774 22.3316 21.3488 21.9043 20.8951 21.7463C20.8448 20.3237 20.4612 18.9844 19.8166 17.8065H24V0ZM3.48387 23.2258C3.27058 23.2258 3.09677 23.052 3.09677 22.8387C3.09677 22.6254 3.27058 22.4516 3.48387 22.4516C3.69716 22.4516 3.87097 22.6254 3.87097 22.8387C3.87097 23.052 3.69716 23.2258 3.48387 23.2258ZM20.5161 22.4516C20.7294 22.4516 20.9032 22.6254 20.9032 22.8387C20.9032 23.052 20.7294 23.2258 20.5161 23.2258C20.3028 23.2258 20.129 23.052 20.129 22.8387C20.129 22.6254 20.3028 22.4516 20.5161 22.4516ZM5.62839 17.0323C6.47187 15.9662 7.572 15.1119 8.8409 14.5746C8.24168 15.2392 7.84723 16.0908 7.76168 17.0323H5.62839ZM14.3226 23.2258H9.67742V22.4516H14.3226V23.2258ZM14.3226 21.6774H9.67742V20.9032H14.3226V21.6774ZM14.4387 19.9053L14.3226 20.0191V20.129H12.3871V18.9128C13.0529 18.7397 13.5484 18.1386 13.5484 17.4194C13.5484 16.5654 12.8539 15.871 12 15.871C11.1461 15.871 10.4516 16.5654 10.4516 17.4194C10.4516 18.1386 10.9471 18.7397 11.6129 18.9128V20.129H9.67742V20.0191L9.56129 19.9053C8.88735 19.2437 8.51613 18.3612 8.51613 17.4194C8.51613 15.4986 10.0792 13.9355 12 13.9355C13.9208 13.9355 15.4839 15.4986 15.4839 17.4194C15.4839 18.3612 15.1126 19.2437 14.4387 19.9053ZM12 18.1935C11.573 18.1935 11.2258 17.8463 11.2258 17.4194C11.2258 16.9924 11.573 16.6452 12 16.6452C12.427 16.6452 12.7742 16.9924 12.7742 17.4194C12.7742 17.8463 12.427 18.1935 12 18.1935ZM16.2383 17.0323C16.1528 16.0908 15.7583 15.2392 15.1591 14.5746C16.4276 15.1119 17.5281 15.9662 18.3716 17.0323H16.2383ZM23.2258 17.0323H19.3394C18.4142 15.6871 17.129 14.609 15.6244 13.9355H20.2003C20.3605 14.3849 20.7863 14.7097 21.2903 14.7097C21.9306 14.7097 22.4516 14.1886 22.4516 13.5484C22.4516 12.9081 21.9306 12.3871 21.2903 12.3871C20.7863 12.3871 20.3605 12.7119 20.2003 13.1613H3.79974C3.63948 12.7119 3.21368 12.3871 2.70968 12.3871C2.06942 12.3871 1.54839 12.9081 1.54839 13.5484C1.54839 14.1886 2.06942 14.7097 2.70968 14.7097C3.21368 14.7097 3.63948 14.3849 3.79974 13.9355H8.37561C6.87097 14.609 5.58581 15.6871 4.66065 17.0323H0.774194V3.87097H23.2258V17.0323ZM20.9032 13.5484C20.9032 13.3351 21.077 13.1613 21.2903 13.1613C21.5036 13.1613 21.6774 13.3351 21.6774 13.5484C21.6774 13.7617 21.5036 13.9355 21.2903 13.9355C21.077 13.9355 20.9032 13.7617 20.9032 13.5484ZM3.09677 13.5484C3.09677 13.7617 2.92297 13.9355 2.70968 13.9355C2.49639 13.9355 2.32258 13.7617 2.32258 13.5484C2.32258 13.3351 2.49639 13.1613 2.70968 13.1613C2.92297 13.1613 3.09677 13.3351 3.09677 13.5484ZM23.2258 3.09677H0.774194V0.774194H23.2258V3.09677Z" fill="white"/>
<path d="M3.86946 1.54688H1.54688V2.32107H3.86946V1.54688Z" fill="white"/>
<path d="M5.41872 1.54688H4.64453V2.32107H5.41872V1.54688Z" fill="white"/>
<path d="M7.74042 4.64453H1.54688V11.6123H7.74042V4.64453ZM6.96623 10.8381H2.32107V5.41872H6.96623V10.8381Z" fill="white"/>
<path d="M15.4834 4.64453H8.51562V11.6123H15.4834V4.64453ZM14.7092 10.8381H9.28982V5.41872H14.7092V10.8381Z" fill="white"/>
<path d="M22.4514 4.64453H16.2578V11.6123H22.4514V4.64453ZM21.6772 10.8381H17.032V5.41872H21.6772V10.8381Z" fill="white"/>
</g>
</g>
<defs>
<clipPath id="clip0_3166_900">
<rect width="24" height="24" fill="white"/>
</clipPath>
<clipPath id="clip1_3166_900">
<rect width="24" height="24" fill="white"/>
</clipPath>
</defs>
</svg>
