<svg width="24" height="24" viewBox="0 0 24 24" fill="none" xmlns="http://www.w3.org/2000/svg">
<path fill-rule="evenodd" clip-rule="evenodd" d="M13.4498 2.6289C13.1982 2.37727 12.8808 2.18756 12.5267 2.09021L12.5255 2.08895H12.523H12.5217L12.5205 2.08775H12.5179H12.5168L12.5155 2.08645H12.5142L12.5116 2.08525H12.5105C12.3637 2.04601 12.2108 2.02196 12.0527 2.01565L12.0477 2.01445H12.0451H12.0438H12.0388H12.035H12.0299H12.0262H12.021H12.0173H12.0122H12.0084H12.0034L11.9996 2.01325H11.9944H11.9907H11.9857H11.9818H11.9768H11.9717H11.9679H11.9629H11.9591H11.954H11.9489H11.9452H11.9401H11.9363H11.9313L11.9262 2.01445H11.9223H11.9136H11.9084H11.9033H11.8996H11.8945H11.8907H11.8857H11.8818L11.8768 2.01565H11.8731H11.8679H11.8629H11.8591L11.8325 2.01695H11.8274V2.01815H11.8237L11.8022 2.01946H11.8009H11.7972C11.2838 2.05989 10.821 2.28497 10.4758 2.62896C10.0964 3.00957 9.85994 3.53559 9.85994 4.11592C9.85994 4.69761 10.0964 5.22363 10.4758 5.60299C10.8564 5.9836 11.3824 6.21881 11.9628 6.21881C12.5433 6.21881 13.0692 5.9836 13.4499 5.60299C13.8305 5.22363 14.0657 4.69761 14.0657 4.11592C14.0657 3.53554 13.8305 3.00952 13.4498 2.6289ZM12.5976 3.48237C12.4357 3.32047 12.2106 3.21936 11.9628 3.21936C11.7149 3.21936 11.4911 3.32047 11.3293 3.48237C11.1674 3.64427 11.0663 3.86804 11.0663 4.11587C11.0663 4.36375 11.1674 4.58878 11.3293 4.75067C11.4911 4.91257 11.7149 5.01243 11.9628 5.01243C12.2106 5.01243 12.4357 4.91257 12.5976 4.75067C12.7594 4.58878 12.8593 4.36375 12.8593 4.11587C12.8593 3.86804 12.7594 3.64427 12.5976 3.48237ZM11.9628 2.9083C12.2965 2.9083 12.5976 3.04359 12.8163 3.26235C13.0349 3.48107 13.1703 3.78331 13.1703 4.11582C13.1703 4.44963 13.035 4.75062 12.8175 4.96934C12.5975 5.1881 12.2965 5.32344 11.9627 5.32344C11.6302 5.32344 11.328 5.1881 11.1104 4.97064C10.8904 4.75057 10.7551 4.44963 10.7551 4.11577C10.7551 3.78326 10.8904 3.48101 11.1091 3.26355C11.328 3.04359 11.6303 2.9083 11.9628 2.9083ZM11.5215 1.74241C11.6138 1.72603 11.7073 1.7146 11.8022 1.70829L11.8072 1.70709H11.8085L11.8528 1.70453H11.8578H11.8629H11.868H11.8705H11.8731H11.8781H11.8832L11.8883 1.70323H11.8934H11.8985H11.9009H11.9035H11.9086H11.9137H11.9188H11.9238H11.9289H11.9327H11.9339H11.939L11.9427 1.70203H11.9478H11.953H11.958H11.9631H11.9681H11.9733H11.9783H11.9834L11.9884 1.70323H11.9936H11.9947H11.9986H12.0036H12.0074H12.0125H12.0176H12.0226H12.0252H12.0277H12.0328H12.0378H12.0429L12.048 1.70453H12.0531H12.0568H12.0581H12.0632H12.067H12.072L12.0771 1.70573L12.1226 1.70829H12.1277C12.2213 1.7146 12.3148 1.72603 12.4059 1.74241V0.442542C12.4059 0.321133 12.3553 0.209845 12.2757 0.130227C12.1959 0.0505568 12.0847 0 11.9633 0C11.8432 0 11.7319 0.0505568 11.6523 0.130227C11.5714 0.209845 11.5221 0.321133 11.5221 0.442542V1.74241H11.5215ZM13.4941 18.7246H10.4328C10.362 18.7246 10.2975 18.7536 10.252 18.7992C10.2052 18.8459 10.1761 18.9105 10.1761 18.9813V22.0426C10.1761 22.1134 10.2052 22.1766 10.252 22.2234C10.2975 22.2702 10.362 22.2981 10.4328 22.2981H13.4941C13.5648 22.2981 13.6281 22.2703 13.6749 22.2234C13.7217 22.1767 13.7495 22.1134 13.7495 22.0426V18.9813C13.7495 18.913 13.7243 18.8522 13.6812 18.8067L13.6749 18.8004C13.6281 18.7536 13.5648 18.7246 13.4941 18.7246ZM12.5735 19.9005C12.418 19.745 12.2018 19.6489 11.9628 19.6489C11.7251 19.6489 11.5089 19.745 11.3533 19.9005C11.1964 20.0573 11.1004 20.2735 11.1004 20.5113C11.1004 20.7502 11.1964 20.9665 11.352 21.122C11.5088 21.2788 11.725 21.3749 11.9627 21.3749C12.2017 21.3749 12.4179 21.2788 12.5734 21.122C12.7303 20.9665 12.8263 20.7502 12.8263 20.5113C12.8264 20.2735 12.7303 20.0573 12.5735 19.9005ZM16.874 16.3701C16.7856 16.3701 16.7134 16.298 16.7134 16.2095C16.7134 16.121 16.7856 16.0489 16.874 16.0489H21.1379C21.2265 16.0489 21.2985 16.121 21.2985 16.2095C21.2985 16.298 21.2265 16.3701 21.1379 16.3701H16.874ZM3.32 16.3701C3.23146 16.3701 3.15941 16.298 3.15941 16.2095C3.15941 16.121 3.23146 16.0489 3.32 16.0489H7.17542C7.26395 16.0489 7.33611 16.121 7.33611 16.2095C7.33611 16.298 7.26395 16.3701 7.17542 16.3701H3.32ZM12.5773 15.734H11.6263V16.1741V16.1778V16.2057V16.2094V16.2132V16.6849H12.5773V16.2132V16.2094V16.2057V15.734ZM9.0924 16.0489H10.3063L10.2659 16.0337C9.90168 15.8896 9.559 15.7037 9.24412 15.4811L9.0924 16.0489ZM14.9141 16.3701H12.8998V16.8455C12.8998 16.9353 12.8277 17.0074 12.7392 17.0074H11.4659C11.3773 17.0074 11.3053 16.9353 11.3053 16.8455V16.3701H9.05071C9.03553 16.3701 9.0216 16.3688 9.00767 16.365L8.11116 19.7121L8.10991 19.7146C8.05935 19.9043 7.93413 20.056 7.7761 20.1483C7.66606 20.2116 7.5409 20.2457 7.41062 20.2445L6.78854 22.494C6.767 22.5762 6.68106 22.6255 6.59884 22.604C6.51672 22.5825 6.46736 22.4978 6.48885 22.4143L7.10842 20.1749C6.97439 20.1117 6.86571 20.0092 6.79486 19.8853L6.7911 19.879C6.70131 19.721 6.671 19.5287 6.72155 19.3403L10.3253 5.88995C10.6832 6.21995 11.141 6.44378 11.648 6.50952L9.33006 15.1612C9.3491 15.1663 9.36809 15.1738 9.38442 15.1865C9.69048 15.4078 10.0256 15.5937 10.3833 15.734C10.6768 15.849 10.9853 15.9351 11.3052 15.9881V15.5734C11.3052 15.4849 11.3772 15.4115 11.4658 15.4115H12.7391C12.8276 15.4115 12.8997 15.4848 12.8997 15.5734V15.9692C13.1905 15.9148 13.4725 15.8314 13.7406 15.7239C14.0504 15.6 14.345 15.442 14.6156 15.2573L12.2725 6.51083C12.7795 6.44639 13.2372 6.22381 13.5951 5.89501L17.1977 19.3403C17.2483 19.5287 17.2179 19.721 17.1294 19.879L17.1257 19.8853C17.0637 19.9915 16.9751 20.0825 16.8664 20.1457L17.4316 22.4142C17.4531 22.4977 17.4038 22.5824 17.3216 22.6039C17.2382 22.6254 17.1535 22.5761 17.132 22.4939L16.5717 20.2419C16.4201 20.2558 16.2708 20.2204 16.1444 20.1483C15.9851 20.056 15.8611 19.9042 15.8093 19.7146L14.9141 16.3701ZM14.703 15.5836C14.4373 15.7568 14.1554 15.9035 13.8596 16.0223L13.7926 16.0489H14.8281L14.703 15.5836ZM16.9866 10.8822H16.5302V11.3399H16.7539H16.759H16.7627H16.9866V10.8822ZM16.3683 10.5598H17.1473C17.237 10.5598 17.3091 10.6319 17.3091 10.7217V11.5006C17.3091 11.589 17.237 11.6612 17.1473 11.6612H16.9171C16.9058 12.0115 16.8564 12.3528 16.7742 12.6816C16.6781 13.0711 16.5327 13.4441 16.3481 13.7906C16.3064 13.869 16.209 13.8981 16.1306 13.8563C16.0522 13.8146 16.0231 13.7172 16.0648 13.6401C16.2368 13.3164 16.3721 12.9699 16.4632 12.6045C16.5377 12.3023 16.5833 11.9861 16.5947 11.6612H16.3684C16.2798 11.6612 16.2078 11.589 16.2078 11.5006V10.7217C16.2077 10.6318 16.2797 10.5598 16.3683 10.5598ZM7.56865 10.8822H7.11093V11.3399H7.33606H7.33982H7.34357H7.56865V10.8822ZM6.95034 10.5598H7.7293C7.81909 10.5598 7.89119 10.6319 7.89119 10.7217V11.5006C7.89119 11.589 7.81914 11.6612 7.7293 11.6612H7.50417C7.51434 11.976 7.55738 12.2795 7.62813 12.5716C7.71281 12.9256 7.83933 13.2632 8.00238 13.5793C8.04281 13.659 8.01255 13.7551 7.93408 13.7956C7.85446 13.8373 7.75711 13.8057 7.71667 13.7273C7.54345 13.3884 7.40686 13.0268 7.31587 12.6474C7.2387 12.3288 7.19315 11.9988 7.18183 11.6612H6.95039C6.86185 11.6612 6.78854 11.589 6.78854 11.5006V10.7217C6.78849 10.6318 6.8618 10.5598 6.95034 10.5598ZM5.86793 23.2248C5.77939 23.2248 5.70734 23.1527 5.70734 23.0643C5.70734 22.9758 5.77939 22.9037 5.86793 22.9037H18.0437C18.1322 22.9037 18.2043 22.9758 18.2043 23.0643C18.2043 23.1527 18.1322 23.2248 18.0437 23.2248H5.86793ZM21.1202 22.9037C21.21 22.9037 21.2821 22.9758 21.2821 23.0643C21.2821 23.1527 21.21 23.2248 21.1202 23.2248H19.7141C19.6256 23.2248 19.5535 23.1527 19.5535 23.0643C19.5535 22.9758 19.6256 22.9037 19.7141 22.9037H21.1202ZM16.8096 23.6775C16.8981 23.6775 16.9701 23.7496 16.9701 23.8381C16.9701 23.9266 16.8981 24 16.8096 24H10.4353C10.3468 24 10.2747 23.9266 10.2747 23.8381C10.2747 23.7496 10.3468 23.6775 10.4353 23.6775H16.8096ZM2.37544 24C2.2869 24 2.21484 23.9266 2.21484 23.8381C2.21484 23.7496 2.2869 23.6775 2.37544 23.6775H5.18883C5.27737 23.6775 5.34953 23.7496 5.34953 23.8381C5.34953 23.9266 5.27737 24 5.18883 24H2.37544ZM7.66857 24C7.58003 24 7.50797 23.9266 7.50797 23.8381C7.50797 23.7496 7.58003 23.6775 7.66857 23.6775H8.95205C9.04059 23.6775 9.11265 23.7496 9.11265 23.8381C9.11265 23.9266 9.04059 24 8.95205 24H7.66857ZM11.9628 19.3379C12.2865 19.3379 12.5798 19.4693 12.7923 19.6818C13.006 19.8956 13.1374 20.1889 13.1374 20.5113C13.1374 20.835 13.0059 21.1283 12.7934 21.3407C12.5797 21.5545 12.2864 21.686 11.9627 21.686C11.6402 21.686 11.3469 21.5544 11.1332 21.342C10.9207 21.1283 10.7893 20.835 10.7893 20.5112C10.7893 20.1888 10.9208 19.8955 11.1332 19.6817C11.347 19.4693 11.6403 19.3379 11.9628 19.3379Z" fill="white"/>
</svg>
