<svg width="24" height="24" viewBox="0 0 24 24" fill="none" xmlns="http://www.w3.org/2000/svg">
<g clip-path="url(#clip0_3166_889)">
<path d="M15.4399 5.12459L15.4399 5.12464L15.4474 5.12371C15.544 5.11163 15.6488 5.14229 15.7282 5.20513C15.8055 5.26628 15.8354 5.33729 15.8354 5.39932C15.8354 5.41681 15.8363 5.43428 15.8382 5.45168L17.382 20.1147L17.3819 20.1147L17.3831 20.1244C17.3951 20.2209 17.3645 20.3256 17.3017 20.405C17.2405 20.4822 17.1695 20.5122 17.1073 20.5122C17.0897 20.5122 17.0722 20.5131 17.0547 20.5149L2.44777 22.0584L2.44776 22.0583L2.4383 22.0595C2.34169 22.0716 2.23685 22.0409 2.15747 21.9781C2.08021 21.9169 2.05027 21.8459 2.05027 21.7839C2.05027 21.7663 2.04935 21.7488 2.0475 21.7313L0.503706 7.12765L0.503797 7.12764L0.502613 7.11817C0.490549 7.02169 0.521177 6.91695 0.584009 6.8376C0.645158 6.76038 0.716224 6.73039 0.778406 6.73039C0.796626 6.73039 0.814833 6.7294 0.832944 6.72741L15.4399 5.12459Z" stroke="white" stroke-linecap="round" stroke-linejoin="round"/>
<path d="M3.88775 10.8071C3.97837 11.6154 4.69433 12.2322 5.53387 12.1447C6.3431 12.0541 6.96014 11.3374 6.87176 10.4977C6.78259 9.65045 6.02546 9.07269 5.22721 9.16132L3.88775 10.8071ZM3.88775 10.8071C3.80018 9.96753 4.41774 9.25127 5.22718 9.16132L3.88775 10.8071ZM15.2602 17.6985L3.86624 18.9092L6.50739 15.6592L6.97869 16.0447C7.17171 16.2225 7.41336 16.2595 7.6154 16.2191C7.80795 16.1806 7.96688 16.0755 8.07873 15.9636C8.09081 15.9516 8.10226 15.9389 8.11304 15.9256L10.8419 12.5722L15.2602 17.6985Z" stroke="white" stroke-linecap="round" stroke-linejoin="round"/>
<mask id="path-3-inside-1_3166_889" fill="white">
<path d="M7.24609 5.51819L7.66175 1.77823C7.72114 1.30329 8.1368 0.9471 8.61179 1.00648L23.2188 2.54992C23.6938 2.6093 24.0501 3.02486 23.9907 3.49974L22.4469 18.1034C22.4469 18.519 21.9718 18.8751 21.4969 18.8751L17.6967 18.4596"/>
</mask>
<path d="M6.25221 5.40773C6.19121 5.95664 6.58673 6.45107 7.13563 6.51207C7.68454 6.57308 8.17897 6.17756 8.23997 5.62865L6.25221 5.40773ZM7.66175 1.77823L6.66939 1.65414L6.66787 1.66777L7.66175 1.77823ZM8.61179 1.00648L8.48775 1.99875C8.49406 1.99954 8.50038 2.00027 8.50671 2.00094L8.61179 1.00648ZM23.2188 2.54992L23.3428 1.55764C23.3365 1.55685 23.3302 1.55613 23.3238 1.55546L23.2188 2.54992ZM23.9907 3.49974L22.9984 3.37565C22.9976 3.38196 22.9969 3.38828 22.9962 3.39461L23.9907 3.49974ZM22.4469 18.1034L21.4524 17.9983C21.4487 18.0332 21.4469 18.0683 21.4469 18.1034H22.4469ZM21.4969 18.8751L21.3881 19.8692C21.4242 19.8732 21.4605 19.8751 21.4969 19.8751V18.8751ZM17.8054 17.4655C17.2563 17.4055 16.7626 17.8019 16.7026 18.3509C16.6425 18.8999 17.0389 19.3936 17.5879 19.4537L17.8054 17.4655ZM8.23997 5.62865L8.65563 1.88869L6.66787 1.66777L6.25221 5.40773L8.23997 5.62865ZM8.65403 1.90231C8.65179 1.92019 8.64191 1.94304 8.61772 1.96301C8.59017 1.98577 8.54111 2.00542 8.48775 1.99875L8.73583 0.0141978C7.65878 -0.120437 6.79043 0.686873 6.66948 1.65415L8.65403 1.90231ZM8.50671 2.00094L23.1137 3.54439L23.3238 1.55546L8.71687 0.0120114L8.50671 2.00094ZM23.0947 3.5422C23.077 3.53999 23.0542 3.53019 23.0342 3.50599C23.0115 3.47841 22.9917 3.42922 22.9984 3.37565L24.983 3.62384C25.1177 2.54645 24.3098 1.67851 23.3428 1.55764L23.0947 3.5422ZM22.9962 3.39461L21.4524 17.9983L23.4413 18.2085L24.9851 3.60487L22.9962 3.39461ZM21.4469 18.1034C21.4469 18.0126 21.4735 17.9447 21.4949 17.9069C21.5053 17.8884 21.5148 17.8765 21.5205 17.87C21.5234 17.8666 21.5257 17.8643 21.5271 17.863C21.5286 17.8616 21.5294 17.861 21.5294 17.861C21.5294 17.861 21.5288 17.8614 21.5276 17.8622C21.5265 17.863 21.5249 17.864 21.5228 17.8651C21.5186 17.8675 21.5136 17.8697 21.5084 17.8716C21.4967 17.8758 21.4919 17.8751 21.4969 17.8751V19.8751C21.9725 19.8751 22.4262 19.7018 22.7706 19.4292C23.1088 19.1615 23.4469 18.7056 23.4469 18.1034H21.4469ZM21.6056 17.8811L17.8054 17.4655L17.5879 19.4537L21.3881 19.8692L21.6056 17.8811Z" fill="white" mask="url(#path-3-inside-1_3166_889)"/>
<mask id="path-5-inside-2_3166_889" fill="white">
<path d="M17.407 15.4307L20.672 15.7868C20.8501 15.7868 20.9688 15.6681 21.0282 15.49C21.0282 15.4307 21.0282 15.3713 20.9688 15.312L17.4069 8.84124C17.3475 8.72248 17.1101 8.66317 16.9913 8.72249L16.7539 8.95993"/>
</mask>
<path d="M17.5154 14.4365C16.9664 14.3767 16.4728 14.7732 16.4129 15.3222C16.353 15.8712 16.7495 16.3649 17.2985 16.4248L17.5154 14.4365ZM20.672 15.7868L20.5635 16.7809C20.5996 16.7849 20.6358 16.7868 20.672 16.7868V15.7868ZM21.0282 15.49L21.9768 15.8064C22.0108 15.7044 22.0282 15.5975 22.0282 15.49H21.0282ZM20.9688 15.312L20.0928 15.7942C20.1383 15.8769 20.1953 15.9527 20.2621 16.0194L20.9688 15.312ZM17.4069 8.84124L16.5125 9.28845C16.5184 9.30024 16.5245 9.31192 16.5309 9.32347L17.4069 8.84124ZM16.9913 8.72249L16.5445 7.82787C16.4482 7.87596 16.3603 7.93928 16.2842 8.01538L16.9913 8.72249ZM16.0468 8.25282C15.6563 8.64334 15.6563 9.27651 16.0468 9.66703C16.4373 10.0576 17.0705 10.0576 17.461 9.66703L16.0468 8.25282ZM17.2985 16.4248L20.5635 16.7809L20.7804 14.7927L17.5154 14.4365L17.2985 16.4248ZM20.672 16.7868C21.4251 16.7868 21.8335 16.2362 21.9768 15.8064L20.0795 15.1737C20.0897 15.1432 20.1275 15.0476 20.2361 14.9526C20.3596 14.8445 20.5196 14.7868 20.672 14.7868V16.7868ZM22.0282 15.49C22.0282 15.416 22.0463 14.9748 21.6755 14.6045L20.2621 16.0194C20.1607 15.9181 20.0863 15.786 20.0506 15.6436C20.0234 15.5347 20.0282 15.4417 20.0282 15.49H22.0282ZM21.8449 14.8297L18.283 8.35901L16.5309 9.32347L20.0928 15.7942L21.8449 14.8297ZM18.3013 8.39402C18.0838 7.95902 17.675 7.80226 17.4845 7.75031C17.2795 7.69441 16.9104 7.64509 16.5445 7.82787L17.4382 9.6171C17.2981 9.68707 17.1792 9.69771 17.1212 9.69905C17.0562 9.70056 17.0024 9.69188 16.9583 9.67986C16.9152 9.66811 16.8541 9.6457 16.7845 9.59996C16.7199 9.5575 16.5996 9.46267 16.5125 9.28845L18.3013 8.39402ZM16.2842 8.01538L16.0468 8.25282L17.461 9.66703L17.6985 9.42959L16.2842 8.01538Z" fill="white" mask="url(#path-5-inside-2_3166_889)"/>
</g>
<defs>
<clipPath id="clip0_3166_889">
<rect width="24" height="24" fill="white"/>
</clipPath>
</defs>
</svg>
