<svg width="24" height="24" viewBox="0 0 24 24" fill="none" xmlns="http://www.w3.org/2000/svg">
<g clip-path="url(#clip0_3166_888)">
<path d="M17.6115 9.2858H11.4172V6.18867C11.4172 4.05397 13.154 2.31725 15.2887 2.31725V1.54297C12.7269 1.54297 10.643 3.62695 10.643 6.18867V9.2858H2.90013C2.04609 9.2858 1.35156 9.98033 1.35156 10.8344V20.1258C1.35156 20.9798 2.04609 21.6743 2.90013 21.6743H7.15869V23.2229H6.3844V23.9972H14.1272V23.2229H13.3529V21.6743H17.6115C18.4655 21.6743 19.1601 20.9798 19.1601 20.1258V10.8344C19.1601 9.98033 18.4655 9.2858 17.6115 9.2858ZM12.5787 23.2229H7.93297V21.6743H12.5787V23.2229ZM18.3858 20.1258C18.3858 20.5528 18.0385 20.9 17.6115 20.9H2.90013C2.47311 20.9 2.12585 20.5528 2.12585 20.1258V19.3515H18.3858V20.1258ZM18.3858 18.5772H2.12585V10.8344C2.12585 10.4073 2.47311 10.0601 2.90013 10.0601H10.643V10.8344C10.643 12.1863 9.94533 13.3767 8.8923 14.0693C8.48735 13.0813 7.5164 12.3829 6.3844 12.3829C4.89004 12.3829 3.67441 13.5989 3.67441 15.0929C3.67441 16.5869 4.89004 17.8029 6.3844 17.8029C7.87877 17.8029 9.09439 16.5869 9.09439 15.0929C9.09439 15.0139 9.08936 14.9361 9.08239 14.8587C10.4753 14.0558 11.4172 12.5544 11.4172 10.8344V10.0601H17.6115C18.0385 10.0601 18.3858 10.4073 18.3858 10.8344V18.5772ZM6.77154 15.4801C7.31044 15.4801 7.82612 15.3829 8.30811 15.2133C8.24423 16.2238 7.41033 17.0286 6.3844 17.0286C5.31705 17.0286 4.44869 16.1603 4.44869 15.0929C4.44869 14.0256 5.31705 13.1572 6.3844 13.1572C7.21831 13.1572 7.92406 13.6899 8.19584 14.4309C7.7545 14.6063 7.27483 14.7058 6.77154 14.7058H5.99726V15.4801H6.77154Z" fill="white"/>
<path d="M14.5165 10.8359H13.7422V11.6102H14.5165V10.8359Z" fill="white"/>
<path d="M16.0633 10.8359H15.2891V11.6102H16.0633V10.8359Z" fill="white"/>
<path d="M17.6102 10.8359H16.8359V11.6102H17.6102V10.8359Z" fill="white"/>
<path d="M14.3516 3.86751H16.1231L21.9302 1.9318L16.1231 -0.00390625H14.3516L16.2873 1.9318L14.3516 3.86751ZM16.3326 0.881874L19.482 1.9318L16.3326 2.98173L17.3821 1.9318L16.3326 0.881874Z" fill="white"/>
<path d="M12.9688 17.0316H16.8402V13.1602H12.9688V17.0316ZM13.743 13.9344H16.0659V16.2573H13.743V13.9344Z" fill="white"/>
</g>
<defs>
<clipPath id="clip0_3166_888">
<rect width="24" height="24" fill="white"/>
</clipPath>
</defs>
</svg>
